{
    "asset" : {
        "generator" : "Khronos glTF Blender I/O v1.0.5",
        "version" : "2.0"
    },
    "scene" : 0,
    "scenes" : [
        {
            "name" : "Scene",
            "nodes" : [
                0,
                1,
                2,
                3
            ]
        }
    ],
    "nodes" : [
        {
            "name" : "Light",
            "rotation" : [
                0.16907575726509094,
                0.7558803558349609,
                -0.27217137813568115,
                0.570947527885437
            ],
            "translation" : [
                -4.627173900604248,
                4.579439640045166,
                5.674348831176758
            ]
        },
        {
            "name" : "Camera",
            "rotation" : [
                0.5568104386329651,
                -0.16832157969474792,
                -0.0006961403414607048,
                0.8134061098098755
            ],
            "translation" : [
                -3.5338094234466553,
                4.559199810028076,
                7.8687543869018555
            ]
        },
        {
            "mesh" : 0,
            "name" : "nv",
            "rotation" : [
                0.7071068286895752,
                0,
                0,
                0.7071067094802856
            ],
            "translation" : [
                4.378533840179443,
                -0.8658751249313354,
                -1.9082900285720825
            ]
        },
        {
            "name" : "\u8d1d\u585e\u5c14\u66f2\u7ebf.001",
            "rotation" : [
                0.7016985416412354,
                0,
                0,
                0.7124739289283752
            ],
            "translation" : [
                4.435825347900391,
                4.322657108306885,
                -0.6984087824821472
            ]
        }
    ],
    "materials" : [
        {
            "doubleSided" : true,
            "name" : "Default OBJ.001",
            "pbrMetallicRoughness" : {
                "baseColorFactor" : [
                    0.800000011920929,
                    0.800000011920929,
                    0.800000011920929,
                    1
                ],
                "metallicFactor" : 0,
                "roughnessFactor" : 0.5
            }
        },
        {
            "doubleSided" : true,
            "name" : "\u6750\u8d28.001",
            "pbrMetallicRoughness" : {
                "baseColorFactor" : [
                    0.800000011920929,
                    0.800000011920929,
                    0.800000011920929,
                    1
                ],
                "metallicFactor" : 0,
                "roughnessFactor" : 0.5
            }
        }
    ],
    "meshes" : [
        {
            "name" : "nv",
            "primitives" : [
                {
                    "attributes" : {
                        "POSITION" : 0,
                        "NORMAL" : 1,
                        "TEXCOORD_0" : 2,
                        "JOINTS_0" : 3,
                        "WEIGHTS_0" : 4
                    },
                    "indices" : 5,
                    "material" : 0
                },
                {
                    "attributes" : {
                        "POSITION" : 6,
                        "NORMAL" : 7,
                        "TEXCOORD_0" : 8,
                        "JOINTS_0" : 9,
                        "WEIGHTS_0" : 10
                    },
                    "indices" : 11,
                    "material" : 1
                }
            ]
        }
    ],
    "accessors" : [
        {
            "bufferView" : 0,
            "componentType" : 5126,
            "count" : 32815,
            "max" : [
                3.2735700607299805,
                0.45356300473213196,
                0.08518300205469131
            ],
            "min" : [
                -3.2735800743103027,
                -0.47568801045417786,
                -6.997900009155273
            ],
            "type" : "VEC3"
        },
        {
            "bufferView" : 1,
            "componentType" : 5126,
            "count" : 32815,
            "type" : "VEC3"
        },
        {
            "bufferView" : 2,
            "componentType" : 5126,
            "count" : 32815,
            "type" : "VEC2"
        },
        {
            "bufferView" : 3,
            "componentType" : 5123,
            "count" : 32815,
            "type" : "VEC4"
        },
        {
            "bufferView" : 4,
            "componentType" : 5126,
            "count" : 32815,
            "type" : "VEC4"
        },
        {
            "bufferView" : 5,
            "componentType" : 5123,
            "count" : 173382,
            "type" : "SCALAR"
        },
        {
            "bufferView" : 6,
            "componentType" : 5126,
            "count" : 3027,
            "max" : [
                0.6698189973831177,
                0.5264010429382324,
                -3.030319929122925
            ],
            "min" : [
                -0.6710339784622192,
                -0.5105710029602051,
                -5.627399921417236
            ],
            "type" : "VEC3"
        },
        {
            "bufferView" : 7,
            "componentType" : 5126,
            "count" : 3027,
            "type" : "VEC3"
        },
        {
            "bufferView" : 8,
            "componentType" : 5126,
            "count" : 3027,
            "type" : "VEC2"
        },
        {
            "bufferView" : 9,
            "componentType" : 5123,
            "count" : 3027,
            "type" : "VEC4"
        },
        {
            "bufferView" : 10,
            "componentType" : 5126,
            "count" : 3027,
            "type" : "VEC4"
        },
        {
            "bufferView" : 11,
            "componentType" : 5123,
            "count" : 15972,
            "type" : "SCALAR"
        }
    ],
    "bufferViews" : [
        {
            "buffer" : 0,
            "byteLength" : 393780,
            "byteOffset" : 0
        },
        {
            "buffer" : 0,
            "byteLength" : 393780,
            "byteOffset" : 393780
        },
        {
            "buffer" : 0,
            "byteLength" : 262520,
            "byteOffset" : 787560
        },
        {
            "buffer" : 0,
            "byteLength" : 262520,
            "byteOffset" : 1050080
        },
        {
            "buffer" : 0,
            "byteLength" : 525040,
            "byteOffset" : 1312600
        },
        {
            "buffer" : 0,
            "byteLength" : 346764,
            "byteOffset" : 1837640
        },
        {
            "buffer" : 0,
            "byteLength" : 36324,
            "byteOffset" : 2184404
        },
        {
            "buffer" : 0,
            "byteLength" : 36324,
            "byteOffset" : 2220728
        },
        {
            "buffer" : 0,
            "byteLength" : 24216,
            "byteOffset" : 2257052
        },
        {
            "buffer" : 0,
            "byteLength" : 24216,
            "byteOffset" : 2281268
        },
        {
            "buffer" : 0,
            "byteLength" : 48432,
            "byteOffset" : 2305484
        },
        {
            "buffer" : 0,
            "byteLength" : 31944,
            "byteOffset" : 2353916
        }
    ],
    "buffers" : [
        {
            "byteLength" : 2385860,
            "uri" : "woman.bin"
        }
    ]
}
